<svg width="1567px" height="812px" viewBox="0 0 1567 812" version="1.1" xmlns="http://www.w3.org/2000/svg" xmlns:xlink="http://www.w3.org/1999/xlink">
    <title>pattern-6</title>
    <g id="Dektop" stroke="none" stroke-width="1" fill="none" fill-rule="evenodd">
        <g id="Home-Page-Disclaimer" transform="translate(127.000000, -4578.000000)">
            <g id="Info-&amp;-Artikel" transform="translate(-127.000000, 4578.000000)">
                <g id="pattern-6">
                    <path d="M83.7162193,51.1474545 C169.468454,-10.8067389 631.048889,-16.477749 1468.45752,34.1344244 C1629.16458,573.839691 1593.30596,832.697806 1360.88166,810.70877 C1104.82215,786.483671 676.775807,785.8008 76.7426408,808.660158 L76.7426408,808.660159 C47.0649536,809.790784 21.6661096,787.556267 18.8610935,757.989811 C-20.203885,346.222849 1.41449028,110.60873 83.7162193,51.1474545 Z" id="Rectangle-Copy-4" fill-opacity="0.5" fill="#000" opacity="0.1" transform="translate(783.500000, 406.000000) scale(-1, 1) translate(-783.500000, -406.000000) "></path>
                    <g id="shutterstock_670149856" opacity="0.35" transform="translate(54.000000, 120.000000)" fill="#000">
                        <path d="M290.998236,288 C289.343915,288 288,289.343915 288,290.998236 C288,292.656085 289.343915,294 290.998236,294 C292.656085,294 294,292.656085 294,290.998236 C294,289.343915 292.656085,288 290.998236,288" id="Fill-17"></path>
                        <path d="M257,288 C255.341176,288 254,289.343915 254,290.998236 C254,292.656085 255.341176,294 257,294 C258.658824,294 260,292.656085 260,290.998236 C260,289.343915 258.658824,288 257,288" id="Fill-18"></path>
                        <path d="M227.001764,288 C225.343915,288 224,289.343915 224,290.998236 C224,292.656085 225.343915,294 227.001764,294 C228.656085,294 230,292.656085 230,290.998236 C230,289.343915 228.656085,288 227.001764,288" id="Fill-19"></path>
                        <path d="M195.001764,288 C193.343915,288 192,289.343915 192,290.998236 C192,292.656085 193.343915,294 195.001764,294 C196.656085,294 198,292.656085 198,290.998236 C198,289.343915 196.656085,288 195.001764,288" id="Fill-20"></path>
                        <path d="M161.998236,288 C160.343915,288 159,289.343915 159,290.998236 C159,292.656085 160.343915,294 161.998236,294 C163.656085,294 165,292.656085 165,290.998236 C165,289.343915 163.656085,288 161.998236,288" id="Fill-21"></path>
                        <path d="M129.998236,288 C128.340388,288 127,289.343915 127,290.998236 C127,292.656085 128.340388,294 129.998236,294 C131.656085,294 133,292.656085 133,290.998236 C133,289.343915 131.656085,288 129.998236,288" id="Fill-22"></path>
                        <path d="M99.0017637,288 C97.3439153,288 96,289.343915 96,290.998236 C96,292.656085 97.3439153,294 99.0017637,294 C100.659612,294 102,292.656085 102,290.998236 C102,289.343915 100.659612,288 99.0017637,288" id="Fill-23"></path>
                        <path d="M66.0017637,288 C64.3439153,288 63,289.343915 63,290.998236 C63,292.656085 64.3439153,294 66.0017637,294 C67.6560847,294 69,292.656085 69,290.998236 C69,289.343915 67.6560847,288 66.0017637,288" id="Fill-24"></path>
                        <path d="M34.9982363,288 C33.3439153,288 32,289.343915 32,290.998236 C32,292.656085 33.3439153,294 34.9982363,294 C36.6560847,294 38,292.656085 38,290.998236 C38,289.343915 36.6560847,288 34.9982363,288" id="Fill-25"></path>
                        <path d="M2.99823633,288 C1.34391534,288 0,289.343915 0,290.998236 C0,292.656085 1.34391534,294 2.99823633,294 C4.65608466,294 6,292.656085 6,290.998236 C6,289.343915 4.65608466,288 2.99823633,288" id="Fill-26"></path>
                        <path d="M290.998236,256 C289.343915,256 288,257.341176 288,259 C288,260.658824 289.343915,262 290.998236,262 C292.656085,262 294,260.658824 294,259 C294,257.341176 292.656085,256 290.998236,256" id="Fill-29"></path>
                        <path d="M257,256 C255.341176,256 254,257.341176 254,259 C254,260.658824 255.341176,262 257,262 C258.658824,262 260,260.658824 260,259 C260,257.341176 258.658824,256 257,256" id="Fill-30"></path>
                        <path d="M227.001764,256 C225.343915,256 224,257.341176 224,259 C224,260.658824 225.343915,262 227.001764,262 C228.656085,262 230,260.658824 230,259 C230,257.341176 228.656085,256 227.001764,256" id="Fill-31"></path>
                        <path d="M195.001764,256 C193.343915,256 192,257.341176 192,259 C192,260.658824 193.343915,262 195.001764,262 C196.656085,262 198,260.658824 198,259 C198,257.341176 196.656085,256 195.001764,256" id="Fill-32"></path>
                        <path d="M161.998236,256 C160.343915,256 159,257.341176 159,259 C159,260.658824 160.343915,262 161.998236,262 C163.656085,262 165,260.658824 165,259 C165,257.341176 163.656085,256 161.998236,256" id="Fill-33"></path>
                        <path d="M129.998236,256 C128.340388,256 127,257.341176 127,259 C127,260.658824 128.340388,262 129.998236,262 C131.656085,262 133,260.658824 133,259 C133,257.341176 131.656085,256 129.998236,256" id="Fill-34"></path>
                        <path d="M99.0017637,256 C97.3439153,256 96,257.341176 96,259 C96,260.658824 97.3439153,262 99.0017637,262 C100.659612,262 102,260.658824 102,259 C102,257.341176 100.659612,256 99.0017637,256" id="Fill-35"></path>
                        <path d="M66.0017637,256 C64.3439153,256 63,257.341176 63,259 C63,260.658824 64.3439153,262 66.0017637,262 C67.6560847,262 69,260.658824 69,259 C69,257.341176 67.6560847,256 66.0017637,256" id="Fill-36"></path>
                        <path d="M34.9982363,256 C33.3439153,256 32,257.341176 32,259 C32,260.658824 33.3439153,262 34.9982363,262 C36.6560847,262 38,260.658824 38,259 C38,257.341176 36.6560847,256 34.9982363,256" id="Fill-37"></path>
                        <path d="M2.99823633,256 C1.34391534,256 0,257.341176 0,259 C0,260.658824 1.34391534,262 2.99823633,262 C4.65608466,262 6,260.658824 6,259 C6,257.341176 4.65608466,256 2.99823633,256" id="Fill-38"></path>
                        <path d="M290.998236,225 C289.343915,225 288,226.343915 288,228.001764 C288,229.656085 289.343915,231 290.998236,231 C292.656085,231 294,229.656085 294,228.001764 C294,226.343915 292.656085,225 290.998236,225" id="Fill-41"></path>
                        <path d="M257,225 C255.341176,225 254,226.343915 254,228.001764 C254,229.656085 255.341176,231 257,231 C258.658824,231 260,229.656085 260,228.001764 C260,226.343915 258.658824,225 257,225" id="Fill-42"></path>
                        <path d="M227.001764,225 C225.343915,225 224,226.343915 224,228.001764 C224,229.656085 225.343915,231 227.001764,231 C228.656085,231 230,229.656085 230,228.001764 C230,226.343915 228.656085,225 227.001764,225" id="Fill-43"></path>
                        <path d="M195.001764,225 C193.343915,225 192,226.343915 192,228.001764 C192,229.656085 193.343915,231 195.001764,231 C196.656085,231 198,229.656085 198,228.001764 C198,226.343915 196.656085,225 195.001764,225" id="Fill-44"></path>
                        <path d="M161.998236,225 C160.343915,225 159,226.343915 159,228.001764 C159,229.656085 160.343915,231 161.998236,231 C163.656085,231 165,229.656085 165,228.001764 C165,226.343915 163.656085,225 161.998236,225" id="Fill-45"></path>
                        <path d="M129.998236,225 C128.340388,225 127,226.343915 127,228.001764 C127,229.656085 128.340388,231 129.998236,231 C131.656085,231 133,229.656085 133,228.001764 C133,226.343915 131.656085,225 129.998236,225" id="Fill-46"></path>
                        <path d="M99.0017637,225 C97.3439153,225 96,226.343915 96,228.001764 C96,229.656085 97.3439153,231 99.0017637,231 C100.659612,231 102,229.656085 102,228.001764 C102,226.343915 100.659612,225 99.0017637,225" id="Fill-47"></path>
                        <path d="M66.0017637,225 C64.3439153,225 63,226.343915 63,228.001764 C63,229.656085 64.3439153,231 66.0017637,231 C67.6560847,231 69,229.656085 69,228.001764 C69,226.343915 67.6560847,225 66.0017637,225" id="Fill-48"></path>
                        <path d="M34.9982363,225 C33.3439153,225 32,226.343915 32,228.001764 C32,229.656085 33.3439153,231 34.9982363,231 C36.6560847,231 38,229.656085 38,228.001764 C38,226.343915 36.6560847,225 34.9982363,225" id="Fill-49"></path>
                        <path d="M2.99823633,225 C1.34391534,225 0,226.343915 0,228.001764 C0,229.656085 1.34391534,231 2.99823633,231 C4.65608466,231 6,229.656085 6,228.001764 C6,226.343915 4.65608466,225 2.99823633,225" id="Fill-50"></path>
                        <path d="M290.998236,192 C289.343915,192 288,193.343915 288,195.001764 C288,196.656085 289.343915,198 290.998236,198 C292.656085,198 294,196.656085 294,195.001764 C294,193.343915 292.656085,192 290.998236,192" id="Fill-53"></path>
                        <path d="M257,192 C255.341176,192 254,193.343915 254,195.001764 C254,196.656085 255.341176,198 257,198 C258.658824,198 260,196.656085 260,195.001764 C260,193.343915 258.658824,192 257,192" id="Fill-54"></path>
                        <path d="M227.001764,192 C225.343915,192 224,193.343915 224,195.001764 C224,196.656085 225.343915,198 227.001764,198 C228.656085,198 230,196.656085 230,195.001764 C230,193.343915 228.656085,192 227.001764,192" id="Fill-55"></path>
                        <path d="M195.001764,192 C193.343915,192 192,193.343915 192,195.001764 C192,196.656085 193.343915,198 195.001764,198 C196.656085,198 198,196.656085 198,195.001764 C198,193.343915 196.656085,192 195.001764,192" id="Fill-56"></path>
                        <path d="M161.998236,192 C160.343915,192 159,193.343915 159,195.001764 C159,196.656085 160.343915,198 161.998236,198 C163.656085,198 165,196.656085 165,195.001764 C165,193.343915 163.656085,192 161.998236,192" id="Fill-57"></path>
                        <path d="M129.998236,192 C128.340388,192 127,193.343915 127,195.001764 C127,196.656085 128.340388,198 129.998236,198 C131.656085,198 133,196.656085 133,195.001764 C133,193.343915 131.656085,192 129.998236,192" id="Fill-58"></path>
                        <path d="M99.0017637,192 C97.3439153,192 96,193.343915 96,195.001764 C96,196.656085 97.3439153,198 99.0017637,198 C100.659612,198 102,196.656085 102,195.001764 C102,193.343915 100.659612,192 99.0017637,192" id="Fill-59"></path>
                        <path d="M66.0017637,192 C64.3439153,192 63,193.343915 63,195.001764 C63,196.656085 64.3439153,198 66.0017637,198 C67.6560847,198 69,196.656085 69,195.001764 C69,193.343915 67.6560847,192 66.0017637,192" id="Fill-60"></path>
                        <path d="M34.9982363,192 C33.3439153,192 32,193.343915 32,195.001764 C32,196.656085 33.3439153,198 34.9982363,198 C36.6560847,198 38,196.656085 38,195.001764 C38,193.343915 36.6560847,192 34.9982363,192" id="Fill-61"></path>
                        <path d="M2.99823633,192 C1.34391534,192 0,193.343915 0,195.001764 C0,196.656085 1.34391534,198 2.99823633,198 C4.65608466,198 6,196.656085 6,195.001764 C6,193.343915 4.65608466,192 2.99823633,192" id="Fill-62"></path>
                        <path d="M290.998236,161 C289.343915,161 288,162.343915 288,163.998236 C288,165.656085 289.343915,167 290.998236,167 C292.656085,167 294,165.656085 294,163.998236 C294,162.343915 292.656085,161 290.998236,161" id="Fill-65"></path>
                        <path d="M257,161 C255.341176,161 254,162.343915 254,163.998236 C254,165.656085 255.341176,167 257,167 C258.658824,167 260,165.656085 260,163.998236 C260,162.343915 258.658824,161 257,161" id="Fill-66"></path>
                        <path d="M227.001764,161 C225.343915,161 224,162.343915 224,163.998236 C224,165.656085 225.343915,167 227.001764,167 C228.656085,167 230,165.656085 230,163.998236 C230,162.343915 228.656085,161 227.001764,161" id="Fill-67"></path>
                        <path d="M195.001764,161 C193.343915,161 192,162.343915 192,163.998236 C192,165.656085 193.343915,167 195.001764,167 C196.656085,167 198,165.656085 198,163.998236 C198,162.343915 196.656085,161 195.001764,161" id="Fill-68"></path>
                        <path d="M161.998236,161 C160.343915,161 159,162.343915 159,163.998236 C159,165.656085 160.343915,167 161.998236,167 C163.656085,167 165,165.656085 165,163.998236 C165,162.343915 163.656085,161 161.998236,161" id="Fill-69"></path>
                        <path d="M129.998236,161 C128.340388,161 127,162.343915 127,163.998236 C127,165.656085 128.340388,167 129.998236,167 C131.656085,167 133,165.656085 133,163.998236 C133,162.343915 131.656085,161 129.998236,161" id="Fill-70"></path>
                        <path d="M99.0017637,161 C97.3439153,161 96,162.343915 96,163.998236 C96,165.656085 97.3439153,167 99.0017637,167 C100.659612,167 102,165.656085 102,163.998236 C102,162.343915 100.659612,161 99.0017637,161" id="Fill-71"></path>
                        <path d="M66.0017637,161 C64.3439153,161 63,162.343915 63,163.998236 C63,165.656085 64.3439153,167 66.0017637,167 C67.6560847,167 69,165.656085 69,163.998236 C69,162.343915 67.6560847,161 66.0017637,161" id="Fill-72"></path>
                        <path d="M34.9982363,161 C33.3439153,161 32,162.343915 32,163.998236 C32,165.656085 33.3439153,167 34.9982363,167 C36.6560847,167 38,165.656085 38,163.998236 C38,162.343915 36.6560847,161 34.9982363,161" id="Fill-73"></path>
                        <path d="M2.99823633,161 C1.34391534,161 0,162.343915 0,163.998236 C0,165.656085 1.34391534,167 2.99823633,167 C4.65608466,167 6,165.656085 6,163.998236 C6,162.343915 4.65608466,161 2.99823633,161" id="Fill-74"></path>
                        <path d="M290.998236,130 C289.343915,130 288,131.341176 288,133 C288,134.658824 289.343915,136 290.998236,136 C292.656085,136 294,134.658824 294,133 C294,131.341176 292.656085,130 290.998236,130" id="Fill-77"></path>
                        <path d="M257,130 C255.341176,130 254,131.341176 254,133 C254,134.658824 255.341176,136 257,136 C258.658824,136 260,134.658824 260,133 C260,131.341176 258.658824,130 257,130" id="Fill-78"></path>
                        <path d="M227.001764,130 C225.343915,130 224,131.341176 224,133 C224,134.658824 225.343915,136 227.001764,136 C228.656085,136 230,134.658824 230,133 C230,131.341176 228.656085,130 227.001764,130" id="Fill-79"></path>
                        <path d="M195.001764,130 C193.343915,130 192,131.341176 192,133 C192,134.658824 193.343915,136 195.001764,136 C196.656085,136 198,134.658824 198,133 C198,131.341176 196.656085,130 195.001764,130" id="Fill-80"></path>
                        <path d="M161.998236,130 C160.343915,130 159,131.341176 159,133 C159,134.658824 160.343915,136 161.998236,136 C163.656085,136 165,134.658824 165,133 C165,131.341176 163.656085,130 161.998236,130" id="Fill-81"></path>
                        <path d="M129.998236,130 C128.340388,130 127,131.341176 127,133 C127,134.658824 128.340388,136 129.998236,136 C131.656085,136 133,134.658824 133,133 C133,131.341176 131.656085,130 129.998236,130" id="Fill-82"></path>
                        <path d="M99.0017637,130 C97.3439153,130 96,131.341176 96,133 C96,134.658824 97.3439153,136 99.0017637,136 C100.659612,136 102,134.658824 102,133 C102,131.341176 100.659612,130 99.0017637,130" id="Fill-83"></path>
                        <path d="M66.0017637,130 C64.3439153,130 63,131.341176 63,133 C63,134.658824 64.3439153,136 66.0017637,136 C67.6560847,136 69,134.658824 69,133 C69,131.341176 67.6560847,130 66.0017637,130" id="Fill-84"></path>
                        <path d="M34.9982363,130 C33.3439153,130 32,131.341176 32,133 C32,134.658824 33.3439153,136 34.9982363,136 C36.6560847,136 38,134.658824 38,133 C38,131.341176 36.6560847,130 34.9982363,130" id="Fill-85"></path>
                        <path d="M2.99823633,130 C1.34391534,130 0,131.341176 0,133 C0,134.658824 1.34391534,136 2.99823633,136 C4.65608466,136 6,134.658824 6,133 C6,131.341176 4.65608466,130 2.99823633,130" id="Fill-86"></path>
                        <path d="M290.998236,96 C289.343915,96 288,97.3439153 288,99.0017637 C288,100.656085 289.343915,102 290.998236,102 C292.656085,102 294,100.656085 294,99.0017637 C294,97.3439153 292.656085,96 290.998236,96" id="Fill-89"></path>
                        <path d="M257,96 C255.341176,96 254,97.3439153 254,99.0017637 C254,100.656085 255.341176,102 257,102 C258.658824,102 260,100.656085 260,99.0017637 C260,97.3439153 258.658824,96 257,96" id="Fill-90"></path>
                        <path d="M227.001764,96 C225.343915,96 224,97.3439153 224,99.0017637 C224,100.656085 225.343915,102 227.001764,102 C228.656085,102 230,100.656085 230,99.0017637 C230,97.3439153 228.656085,96 227.001764,96" id="Fill-91"></path>
                        <path d="M195.001764,96 C193.343915,96 192,97.3439153 192,99.0017637 C192,100.656085 193.343915,102 195.001764,102 C196.656085,102 198,100.656085 198,99.0017637 C198,97.3439153 196.656085,96 195.001764,96" id="Fill-92"></path>
                        <path d="M161.998236,96 C160.343915,96 159,97.3439153 159,99.0017637 C159,100.656085 160.343915,102 161.998236,102 C163.656085,102 165,100.656085 165,99.0017637 C165,97.3439153 163.656085,96 161.998236,96" id="Fill-93"></path>
                        <path d="M129.998236,96 C128.340388,96 127,97.3439153 127,99.0017637 C127,100.656085 128.340388,102 129.998236,102 C131.656085,102 133,100.656085 133,99.0017637 C133,97.3439153 131.656085,96 129.998236,96" id="Fill-94"></path>
                        <path d="M99.0017637,96 C97.3439153,96 96,97.3439153 96,99.0017637 C96,100.656085 97.3439153,102 99.0017637,102 C100.659612,102 102,100.656085 102,99.0017637 C102,97.3439153 100.659612,96 99.0017637,96" id="Fill-95"></path>
                        <path d="M66.0017637,96 C64.3439153,96 63,97.3439153 63,99.0017637 C63,100.656085 64.3439153,102 66.0017637,102 C67.6560847,102 69,100.656085 69,99.0017637 C69,97.3439153 67.6560847,96 66.0017637,96" id="Fill-96"></path>
                        <path d="M34.9982363,96 C33.3439153,96 32,97.3439153 32,99.0017637 C32,100.656085 33.3439153,102 34.9982363,102 C36.6560847,102 38,100.656085 38,99.0017637 C38,97.3439153 36.6560847,96 34.9982363,96" id="Fill-97"></path>
                        <path d="M2.99823633,96 C1.34391534,96 0,97.3439153 0,99.0017637 C0,100.656085 1.34391534,102 2.99823633,102 C4.65608466,102 6,100.656085 6,99.0017637 C6,97.3439153 4.65608466,96 2.99823633,96" id="Fill-98"></path>
                        <path d="M290.998236,64 C289.343915,64 288,65.3439153 288,67.0017637 C288,68.6560847 289.343915,70 290.998236,70 C292.656085,70 294,68.6560847 294,67.0017637 C294,65.3439153 292.656085,64 290.998236,64" id="Fill-101"></path>
                        <path d="M257,64 C255.341176,64 254,65.3439153 254,67.0017637 C254,68.6560847 255.341176,70 257,70 C258.658824,70 260,68.6560847 260,67.0017637 C260,65.3439153 258.658824,64 257,64" id="Fill-102"></path>
                        <path d="M227.001764,64 C225.343915,64 224,65.3439153 224,67.0017637 C224,68.6560847 225.343915,70 227.001764,70 C228.656085,70 230,68.6560847 230,67.0017637 C230,65.3439153 228.656085,64 227.001764,64" id="Fill-103"></path>
                        <path d="M195.001764,64 C193.343915,64 192,65.3439153 192,67.0017637 C192,68.6560847 193.343915,70 195.001764,70 C196.656085,70 198,68.6560847 198,67.0017637 C198,65.3439153 196.656085,64 195.001764,64" id="Fill-104"></path>
                        <path d="M161.998236,64 C160.343915,64 159,65.3439153 159,67.0017637 C159,68.6560847 160.343915,70 161.998236,70 C163.656085,70 165,68.6560847 165,67.0017637 C165,65.3439153 163.656085,64 161.998236,64" id="Fill-105"></path>
                        <path d="M129.998236,64 C128.340388,64 127,65.3439153 127,67.0017637 C127,68.6560847 128.340388,70 129.998236,70 C131.656085,70 133,68.6560847 133,67.0017637 C133,65.3439153 131.656085,64 129.998236,64" id="Fill-106"></path>
                        <path d="M99.0017637,64 C97.3439153,64 96,65.3439153 96,67.0017637 C96,68.6560847 97.3439153,70 99.0017637,70 C100.659612,70 102,68.6560847 102,67.0017637 C102,65.3439153 100.659612,64 99.0017637,64" id="Fill-107"></path>
                        <path d="M66.0017637,64 C64.3439153,64 63,65.3439153 63,67.0017637 C63,68.6560847 64.3439153,70 66.0017637,70 C67.6560847,70 69,68.6560847 69,67.0017637 C69,65.3439153 67.6560847,64 66.0017637,64" id="Fill-108"></path>
                        <path d="M34.9982363,64 C33.3439153,64 32,65.3439153 32,67.0017637 C32,68.6560847 33.3439153,70 34.9982363,70 C36.6560847,70 38,68.6560847 38,67.0017637 C38,65.3439153 36.6560847,64 34.9982363,64" id="Fill-109"></path>
                        <path d="M2.99823633,64 C1.34391534,64 0,65.3439153 0,67.0017637 C0,68.6560847 1.34391534,70 2.99823633,70 C4.65608466,70 6,68.6560847 6,67.0017637 C6,65.3439153 4.65608466,64 2.99823633,64" id="Fill-110"></path>
                        <path d="M290.998236,34 C289.343915,34 288,35.3439153 288,36.9982363 C288,38.6560847 289.343915,40 290.998236,40 C292.656085,40 294,38.6560847 294,36.9982363 C294,35.3439153 292.656085,34 290.998236,34" id="Fill-113"></path>
                        <path d="M257,34 C255.341176,34 254,35.3439153 254,36.9982363 C254,38.6560847 255.341176,40 257,40 C258.658824,40 260,38.6560847 260,36.9982363 C260,35.3439153 258.658824,34 257,34" id="Fill-114"></path>
                        <path d="M227.001764,34 C225.343915,34 224,35.3439153 224,36.9982363 C224,38.6560847 225.343915,40 227.001764,40 C228.656085,40 230,38.6560847 230,36.9982363 C230,35.3439153 228.656085,34 227.001764,34" id="Fill-115"></path>
                        <path d="M195.001764,34 C193.343915,34 192,35.3439153 192,36.9982363 C192,38.6560847 193.343915,40 195.001764,40 C196.656085,40 198,38.6560847 198,36.9982363 C198,35.3439153 196.656085,34 195.001764,34" id="Fill-116"></path>
                        <path d="M161.998236,34 C160.343915,34 159,35.3439153 159,36.9982363 C159,38.6560847 160.343915,40 161.998236,40 C163.656085,40 165,38.6560847 165,36.9982363 C165,35.3439153 163.656085,34 161.998236,34" id="Fill-117"></path>
                        <path d="M129.998236,34 C128.340388,34 127,35.3439153 127,36.9982363 C127,38.6560847 128.340388,40 129.998236,40 C131.656085,40 133,38.6560847 133,36.9982363 C133,35.3439153 131.656085,34 129.998236,34" id="Fill-118"></path>
                        <path d="M99.0017637,34 C97.3439153,34 96,35.3439153 96,36.9982363 C96,38.6560847 97.3439153,40 99.0017637,40 C100.659612,40 102,38.6560847 102,36.9982363 C102,35.3439153 100.659612,34 99.0017637,34" id="Fill-119"></path>
                        <path d="M66.0017637,34 C64.3439153,34 63,35.3439153 63,36.9982363 C63,38.6560847 64.3439153,40 66.0017637,40 C67.6560847,40 69,38.6560847 69,36.9982363 C69,35.3439153 67.6560847,34 66.0017637,34" id="Fill-120"></path>
                        <path d="M34.9982363,34 C33.3439153,34 32,35.3439153 32,36.9982363 C32,38.6560847 33.3439153,40 34.9982363,40 C36.6560847,40 38,38.6560847 38,36.9982363 C38,35.3439153 36.6560847,34 34.9982363,34" id="Fill-121"></path>
                        <path d="M2.99823633,34 C1.34391534,34 0,35.3439153 0,36.9982363 C0,38.6560847 1.34391534,40 2.99823633,40 C4.65608466,40 6,38.6560847 6,36.9982363 C6,35.3439153 4.65608466,34 2.99823633,34" id="Fill-122"></path>
                        <path d="M290.998236,0 C289.343915,0 288,1.34038801 288,2.99823633 C288,4.65608466 289.343915,6 290.998236,6 C292.656085,6 294,4.65608466 294,2.99823633 C294,1.34038801 292.656085,0 290.998236,0" id="Fill-125"></path>
                        <path d="M257,0 C255.341176,0 254,1.34038801 254,2.99823633 C254,4.65608466 255.341176,6 257,6 C258.658824,6 260,4.65608466 260,2.99823633 C260,1.34038801 258.658824,0 257,0" id="Fill-126"></path>
                        <path d="M227.001764,0 C225.343915,0 224,1.34038801 224,2.99823633 C224,4.65608466 225.343915,6 227.001764,6 C228.656085,6 230,4.65608466 230,2.99823633 C230,1.34038801 228.656085,0 227.001764,0" id="Fill-127"></path>
                        <path d="M195.001764,0 C193.343915,0 192,1.34038801 192,2.99823633 C192,4.65608466 193.343915,6 195.001764,6 C196.656085,6 198,4.65608466 198,2.99823633 C198,1.34038801 196.656085,0 195.001764,0" id="Fill-128"></path>
                        <path d="M161.998236,0 C160.343915,0 159,1.34038801 159,2.99823633 C159,4.65608466 160.343915,6 161.998236,6 C163.656085,6 165,4.65608466 165,2.99823633 C165,1.34038801 163.656085,0 161.998236,0" id="Fill-129"></path>
                        <path d="M129.998236,0 C128.340388,0 127,1.34038801 127,2.99823633 C127,4.65608466 128.340388,6 129.998236,6 C131.656085,6 133,4.65608466 133,2.99823633 C133,1.34038801 131.656085,0 129.998236,0" id="Fill-130"></path>
                        <path d="M99.0017637,0 C97.3439153,0 96,1.34038801 96,2.99823633 C96,4.65608466 97.3439153,6 99.0017637,6 C100.659612,6 102,4.65608466 102,2.99823633 C102,1.34038801 100.659612,0 99.0017637,0" id="Fill-131"></path>
                        <path d="M66.0017637,0 C64.3439153,0 63,1.34038801 63,2.99823633 C63,4.65608466 64.3439153,6 66.0017637,6 C67.6560847,6 69,4.65608466 69,2.99823633 C69,1.34038801 67.6560847,0 66.0017637,0" id="Fill-132"></path>
                        <path d="M34.9982363,0 C33.3439153,0 32,1.34038801 32,2.99823633 C32,4.65608466 33.3439153,6 34.9982363,6 C36.6560847,6 38,4.65608466 38,2.99823633 C38,1.34038801 36.6560847,0 34.9982363,0" id="Fill-133"></path>
                        <path d="M2.99823633,0 C1.34391534,0 0,1.34038801 0,2.99823633 C0,4.65608466 1.34391534,6 2.99823633,6 C4.65608466,6 6,4.65608466 6,2.99823633 C6,1.34038801 4.65608466,0 2.99823633,0" id="Fill-134"></path>
                    </g>
                </g>
            </g>
        </g>
    </g>
</svg>