<svg width="1440" height="768" viewBox="0 0 1440 768" fill="none" xmlns="http://www.w3.org/2000/svg">
<g clip-path="url(#clip0_100_289)">
<g opacity="0.603748">
<path opacity="0.437733" fill-rule="evenodd" clip-rule="evenodd" d="M1435.65 126C1433.25 126 1431.31 127.792 1431.31 129.998C1431.31 132.208 1433.25 134 1435.65 134C1438.05 134 1440 132.208 1440 129.998C1440 127.792 1438.05 126 1435.65 126Z" fill="black"/>
<path opacity="0.437733" fill-rule="evenodd" clip-rule="evenodd" d="M1398.7 126C1396.3 126 1394.35 127.792 1394.35 129.998C1394.35 132.208 1396.3 134 1398.7 134C1401.11 134 1403.05 132.208 1403.05 129.998C1403.05 127.792 1401.11 126 1398.7 126Z" fill="black"/>
<path opacity="0.437733" fill-rule="evenodd" clip-rule="evenodd" d="M1363.93 126C1361.52 126 1359.58 127.792 1359.58 129.998C1359.58 132.208 1361.52 134 1363.93 134C1366.32 134 1368.27 132.208 1368.27 129.998C1368.27 127.792 1366.32 126 1363.93 126Z" fill="black"/>
<path opacity="0.437733" fill-rule="evenodd" clip-rule="evenodd" d="M1330.24 126C1327.83 126 1325.89 127.792 1325.89 129.998C1325.89 132.208 1327.83 134 1330.24 134C1332.63 134 1334.58 132.208 1334.58 129.998C1334.58 127.792 1332.63 126 1330.24 126Z" fill="black"/>
<path opacity="0.437733" fill-rule="evenodd" clip-rule="evenodd" d="M1295.45 126C1293.06 126 1291.11 127.792 1291.11 129.998C1291.11 132.208 1293.06 134 1295.45 134C1297.86 134 1299.8 132.208 1299.8 129.998C1299.8 127.792 1297.86 126 1295.45 126Z" fill="black"/>
<path opacity="0.437733" fill-rule="evenodd" clip-rule="evenodd" d="M1435.65 95C1433.25 95 1431.31 96.7882 1431.31 99C1431.31 101.212 1433.25 103 1435.65 103C1438.05 103 1440 101.212 1440 99C1440 96.7882 1438.05 95 1435.65 95Z" fill="black"/>
<path opacity="0.437733" fill-rule="evenodd" clip-rule="evenodd" d="M1398.7 95C1396.3 95 1394.35 96.7882 1394.35 99C1394.35 101.212 1396.3 103 1398.7 103C1401.11 103 1403.05 101.212 1403.05 99C1403.05 96.7882 1401.11 95 1398.7 95Z" fill="black"/>
<path opacity="0.437733" fill-rule="evenodd" clip-rule="evenodd" d="M1363.93 95C1361.52 95 1359.58 96.7882 1359.58 99C1359.58 101.212 1361.52 103 1363.93 103C1366.32 103 1368.27 101.212 1368.27 99C1368.27 96.7882 1366.32 95 1363.93 95Z" fill="black"/>
<path opacity="0.437733" fill-rule="evenodd" clip-rule="evenodd" d="M1330.24 95C1327.83 95 1325.89 96.7882 1325.89 99C1325.89 101.212 1327.83 103 1330.24 103C1332.63 103 1334.58 101.212 1334.58 99C1334.58 96.7882 1332.63 95 1330.24 95Z" fill="black"/>
<path opacity="0.437733" fill-rule="evenodd" clip-rule="evenodd" d="M1295.45 95C1293.06 95 1291.11 96.7882 1291.11 99C1291.11 101.212 1293.06 103 1295.45 103C1297.86 103 1299.8 101.212 1299.8 99C1299.8 96.7882 1297.86 95 1295.45 95Z" fill="black"/>
<path opacity="0.437733" fill-rule="evenodd" clip-rule="evenodd" d="M1435.65 64C1433.25 64 1431.31 65.7919 1431.31 68.0023C1431.31 70.2081 1433.25 72 1435.65 72C1438.05 72 1440 70.2081 1440 68.0023C1440 65.7919 1438.05 64 1435.65 64Z" fill="black"/>
<path opacity="0.437733" fill-rule="evenodd" clip-rule="evenodd" d="M1398.7 64C1396.3 64 1394.35 65.7919 1394.35 68.0023C1394.35 70.2081 1396.3 72 1398.7 72C1401.11 72 1403.05 70.2081 1403.05 68.0023C1403.05 65.7919 1401.11 64 1398.7 64Z" fill="black"/>
<path opacity="0.437733" fill-rule="evenodd" clip-rule="evenodd" d="M1363.93 64C1361.52 64 1359.58 65.7919 1359.58 68.0023C1359.58 70.2081 1361.52 72 1363.93 72C1366.32 72 1368.27 70.2081 1368.27 68.0023C1368.27 65.7919 1366.32 64 1363.93 64Z" fill="black"/>
<path opacity="0.437733" fill-rule="evenodd" clip-rule="evenodd" d="M1330.24 64C1327.83 64 1325.89 65.7919 1325.89 68.0023C1325.89 70.2081 1327.83 72 1330.24 72C1332.63 72 1334.58 70.2081 1334.58 68.0023C1334.58 65.7919 1332.63 64 1330.24 64Z" fill="black"/>
<path opacity="0.437733" fill-rule="evenodd" clip-rule="evenodd" d="M1295.45 64C1293.06 64 1291.11 65.7919 1291.11 68.0023C1291.11 70.2081 1293.06 72 1295.45 72C1297.86 72 1299.8 70.2081 1299.8 68.0023C1299.8 65.7919 1297.86 64 1295.45 64Z" fill="black"/>
<path opacity="0.437733" fill-rule="evenodd" clip-rule="evenodd" d="M1435.65 31C1433.25 31 1431.31 32.7919 1431.31 35.0024C1431.31 37.2081 1433.25 39 1435.65 39C1438.05 39 1440 37.2081 1440 35.0024C1440 32.7919 1438.05 31 1435.65 31Z" fill="black"/>
<path opacity="0.437733" fill-rule="evenodd" clip-rule="evenodd" d="M1398.7 31C1396.3 31 1394.35 32.7919 1394.35 35.0024C1394.35 37.2081 1396.3 39 1398.7 39C1401.11 39 1403.05 37.2081 1403.05 35.0024C1403.05 32.7919 1401.11 31 1398.7 31Z" fill="black"/>
<path opacity="0.437733" fill-rule="evenodd" clip-rule="evenodd" d="M1363.93 31C1361.52 31 1359.58 32.7919 1359.58 35.0024C1359.58 37.2081 1361.52 39 1363.93 39C1366.32 39 1368.27 37.2081 1368.27 35.0024C1368.27 32.7919 1366.32 31 1363.93 31Z" fill="black"/>
<path opacity="0.437733" fill-rule="evenodd" clip-rule="evenodd" d="M1330.24 31C1327.83 31 1325.89 32.7919 1325.89 35.0024C1325.89 37.2081 1327.83 39 1330.24 39C1332.63 39 1334.58 37.2081 1334.58 35.0024C1334.58 32.7919 1332.63 31 1330.24 31Z" fill="black"/>
<path opacity="0.437733" fill-rule="evenodd" clip-rule="evenodd" d="M1295.45 31C1293.06 31 1291.11 32.7919 1291.11 35.0024C1291.11 37.2081 1293.06 39 1295.45 39C1297.86 39 1299.8 37.2081 1299.8 35.0024C1299.8 32.7919 1297.86 31 1295.45 31Z" fill="black"/>
<path opacity="0.437733" fill-rule="evenodd" clip-rule="evenodd" d="M1435.65 0C1433.25 0 1431.31 1.79189 1431.31 3.99765C1431.31 6.20811 1433.25 8 1435.65 8C1438.05 8 1440 6.20811 1440 3.99765C1440 1.79189 1438.05 0 1435.65 0Z" fill="black"/>
<path opacity="0.437733" fill-rule="evenodd" clip-rule="evenodd" d="M1398.7 0C1396.3 0 1394.35 1.79189 1394.35 3.99765C1394.35 6.20811 1396.3 8 1398.7 8C1401.11 8 1403.05 6.20811 1403.05 3.99765C1403.05 1.79189 1401.11 0 1398.7 0Z" fill="black"/>
<path opacity="0.437733" fill-rule="evenodd" clip-rule="evenodd" d="M1363.93 0C1361.52 0 1359.58 1.79189 1359.58 3.99765C1359.58 6.20811 1361.52 8 1363.93 8C1366.32 8 1368.27 6.20811 1368.27 3.99765C1368.27 1.79189 1366.32 0 1363.93 0Z" fill="black"/>
<path opacity="0.437733" fill-rule="evenodd" clip-rule="evenodd" d="M1330.24 0C1327.83 0 1325.89 1.79189 1325.89 3.99765C1325.89 6.20811 1327.83 8 1330.24 8C1332.63 8 1334.58 6.20811 1334.58 3.99765C1334.58 1.79189 1332.63 0 1330.24 0Z" fill="black"/>
<path opacity="0.437733" fill-rule="evenodd" clip-rule="evenodd" d="M1295.45 0C1293.06 0 1291.11 1.79189 1291.11 3.99765C1291.11 6.20811 1293.06 8 1295.45 8C1297.86 8 1299.8 6.20811 1299.8 3.99765C1299.8 1.79189 1297.86 0 1295.45 0Z" fill="black"/>
</g>
<path opacity="0.35" d="M1331.32 54.9995H108.679C48.6574 54.9995 0 99.771 0 155V668C0 723.228 48.6574 768 108.679 768H1331.32C1391.34 768 1440 723.228 1440 668V155C1440 99.771 1391.34 54.9995 1331.32 54.9995Z" fill="url(#paint0_linear_100_289)"/>
</g>
<defs>
<linearGradient id="paint0_linear_100_289" x1="720" y1="54.9995" x2="720" y2="768" gradientUnits="userSpaceOnUse">
<stop stop-opacity="0.3"/>
<stop offset="1" stop-color="#D3D3D3" stop-opacity="0.107955"/>
</linearGradient>
<clipPath id="clip0_100_289">
<rect width="1440" height="768" fill="white"/>
</clipPath>
</defs>
</svg>
