<svg width="239px" height="532px" viewBox="0 0 239 532" version="1.1" xmlns="http://www.w3.org/2000/svg" xmlns:xlink="http://www.w3.org/1999/xlink">
    <title>Path 2 Copy</title>
    <defs>
        <linearGradient x1="50%" y1="-15.5805645%" x2="50%" y2="100%" id="linearGradient-1">
            <stop stop-color="#000" stop-opacity="0.3" offset="0%"></stop>
            <stop stop-color="#D3D3D3" offset="100%"></stop>
        </linearGradient>
    </defs>
    <g id="Dektop" stroke="none" stroke-width="1" fill="none" fill-rule="evenodd" opacity="0.35" stroke-linecap="round">
        <g id="02-Life-At-BCA" transform="translate(-1201.000000, -768.000000)" stroke="url(#linearGradient-1)" stroke-width="70">
            <path d="M1468.73951,803.009145 C1429.97266,802.640374 1374.51297,814.162102 1302.50398,838.935146 C1297.32218,840.717826 1292.25016,842.501876 1287.28764,844.286866 C1285.26748,849.194141 1283.26456,854.214201 1281.26799,859.350426 C1255.94925,924.483483 1244,976.529872 1244,1015.30121 C1244,1053.18517 1255.75138,1111.84308 1280.47575,1191.15936 C1282.23833,1196.81374 1283.99551,1202.34427 1285.74689,1207.75116 C1291.08866,1209.74578 1296.56732,1211.73308 1302.17615,1213.72512 C1375.63341,1239.81438 1431.25241,1252.45288 1468.87132,1252.98066 C1506.60143,1253.50999 1561.68818,1242.40101 1633.99819,1218.28069 C1639.68713,1216.38304 1645.24246,1214.48498 1650.66454,1212.58708 C1652.51643,1207.15434 1654.36213,1201.58467 1656.21144,1195.89082 C1681.82349,1117.03373 1694,1057.8547 1694,1018.48107 C1694,978.111665 1681.5833,925.779894 1655.30685,861.693271 C1653.31494,856.835142 1651.31374,852.081031 1649.30375,847.430561 C1644.59658,845.639606 1639.78175,843.856333 1634.86723,842.072105 C1562.91053,815.948069 1507.47894,803.377655 1468.73951,803.009145 Z" id="Path-2-Copy" transform="translate(1469.000000, 1028.000000) scale(-1, 1) rotate(20.000000) translate(-1469.000000, -1028.000000) "></path>
        </g>
    </g>
</svg>