<svg width="352px" height="542px" viewBox="0 0 352 542" version="1.1" xmlns="http://www.w3.org/2000/svg" xmlns:xlink="http://www.w3.org/1999/xlink">
    <title>Path 2 Copy</title>
    <defs>
        <linearGradient x1="50%" y1="-15.5805645%" x2="50%" y2="100%" id="linearGradient-1">
            <stop stop-color="#000" stop-opacity="0.3" offset="0%"></stop>
            <stop stop-color="#D3D3D3" offset="100%"></stop>
        </linearGradient>
    </defs>
    <g id="Dektop" stroke="none" stroke-width="1" fill="none" fill-rule="evenodd" opacity="0.35" stroke-linecap="round">
        <g id="02-Life-At-BCA" transform="translate(0.000000, -2908.000000)" stroke="url(#linearGradient-1)" stroke-width="70">
            <path d="M83.7395105,2953.00914 C44.9726581,2952.64037 -10.4870326,2964.1621 -82.4960171,2988.93515 C-87.677816,2990.71783 -92.7498388,2992.50188 -97.7123555,2994.28687 C-99.7325193,2999.19414 -101.735438,3004.2142 -103.732009,3009.35043 C-129.050754,3074.48348 -141,3126.52987 -141,3165.30121 C-141,3203.18517 -129.248621,3261.84308 -104.524245,3341.15936 C-102.761667,3346.81374 -101.004494,3352.34427 -99.2531139,3357.75116 C-93.9113414,3359.74578 -88.4326781,3361.73308 -82.8238508,3363.72512 C-9.36659442,3389.81438 46.2524115,3402.45288 83.871324,3402.98066 C121.601434,3403.50999 176.688185,3392.40101 248.998188,3368.28069 C254.687128,3366.38304 260.242462,3364.48498 265.664539,3362.58708 C267.516425,3357.15434 269.362129,3351.58467 271.211437,3345.89082 C296.823489,3267.03373 309,3207.8547 309,3168.48107 C309,3128.11166 296.583304,3075.77989 270.306847,3011.69327 C268.314943,3006.83514 266.313738,3002.08103 264.303745,2997.43056 C259.596584,2995.63961 254.781751,2993.85633 249.867228,2992.0721 C177.910531,2965.94807 122.478942,2953.37765 83.7395105,2953.00914 Z" id="Path-2-Copy" transform="translate(84.000000, 3178.000000) rotate(20.000000) translate(-84.000000, -3178.000000) "></path>
        </g>
    </g>
</svg>